PathFileType	3	(X/Y/Z)	D:\minhoCalibration\240510\subject3_KPNP\preferred\preferred13.trc
DataRate	CameraRate	NumFrames	NumMarkers	Units	OrigDataRate	OrigDataStartFrame	OrigNumFrames
200.0	200.0	24	10	mm	200.0	645	131	
Frame#	Time	Left_Ankle_Outer1			Left_Ankle_Inner1			Left_Knee_Outer1			Left_Knee_Inner1			Left_Wrist1			Right_Wrist1			Right_Knee_Inner1			Right_Knee_Outer1			Right_Ankle_Inner1			Right_Ankle_Outer1			
		X1	Y1	Z1	X2	Y2	Z2	X3	Y3	Z3	X4	Y4	Z4	X5	Y5	Z5	X6	Y6	Z6	X7	Y7	Z7	X8	Y8	Z8	X9	Y9	Z9	X10	Y10	Z10	
645	3.215	-310.22467	96.015388	-526.2005	-366.0896	105.57604	-525.7738	-233.13878	504.18292	-371.00552	-340.54462	504.18298	-361.1575	-212.54915	878.3963	-527.74982	-545.974	898.32574	-663.39722	-590.93555	447.45712	-715.505	-657.82166	530.11121	-770.18921	-479.72137	191.61597	-1028.1218	-548.49182	237.80714	-1086.9078
646	3.22	-309.0777	96.865273	-525.60522	-364.84027	106.55389	-525.31482	-231.69104	504.41223	-369.13504	-338.32382	504.46356	-360.00699	-207.51794	881.89575	-524.71033	-544.53229	901.30579	-653.24347	-595.5412	450.0097	-699.1203	-663.92035	532.72375	-751.89685	-484.64548	204.27278	-1021.237	-557.63788	248.68169	-1076.7975
647	3.225	-307.9614	97.706276	-525.04712	-363.77991	107.5301	-524.75604	-230.07272	504.85849	-367.66531	-335.95349	505.15192	-359.08597	-202.68509	885.16705	-521.85291	-543.21716	904.62885	-643.10248	-599.66907	452.97137	-681.6756	-669.14423	535.85962	-733.33765	-489.54962	218.05792	-1013.562	-566.86804	259.7652	-1066.2126
648	3.23	-306.9368	98.651413	-524.38104	-362.66672	108.66637	-524.30652	-228.19745	505.57535	-366.76401	-333.37665	506.07013	-358.51733	-197.22922	888.66547	-519.65564	-541.7193	908.2063	-632.78925	-603.08466	456.15927	-663.40692	-673.82178	539.15137	-714.06976	-494.3186	232.91669	-1004.9218	-576.15295	270.83453	-1054.2872
649	3.235	-306.04926	99.479927	-523.71655	-361.94391	109.56455	-523.3584	-226.18803	506.43683	-366.25864	-330.78674	507.28195	-358.07349	-192.08134	891.95068	-517.52722	-540.1355	912.24945	-622.1308	-605.27063	459.61374	-644.01801	-677.38446	542.2796	-692.92743	-498.86832	249.18015	-995.62775	-584.89441	282.9451	-1041.4951
650	3.24	-305.54901	100.31371	-522.93701	-360.62354	110.75082	-523.38855	-223.92747	507.48337	-366.34048	-327.78174	508.52072	-358.20529	-186.74883	895.297	-516.04364	-538.30194	916.55939	-611.3197	-606.66992	463.45267	-624.73322	-680.78656	546.4989	-672.18958	-503.1113	266.09808	-984.737	-592.70752	296.1062	-1027.7793
651	3.245	-304.20856	101.50234	-522.69788	-359.68796	111.8975	-522.78699	-221.33754	508.67532	-367.09882	-324.91901	510.25635	-358.14368	-181.28313	898.75171	-515.59015	-536.26953	921.38843	-599.90137	-607.38708	467.8981	-605.23083	-683.7796	551.4389	-650.10052	-507.51245	283.11243	-972.1496	-598.961	310.5827	-1013.576
652	3.25	-303.39996	102.4876	-522.16199	-359.00839	113.20883	-522.2262	-218.54604	510.06662	-368.43933	-321.82214	511.94388	-358.87039	-175.67612	902.16675	-515.41852	-533.651	926.34796	-588.60718	-606.7439	472.36453	-585.12775	-686.09094	556.55273	-629.0661	-512.27448	299.7189	-957.87213	-604.76166	326.69833	-997.04565
653	3.255	-302.68552	103.56552	-521.84613	-358.26932	114.58445	-521.63733	-215.53702	511.4715	-370.34903	-318.7489	513.625	-359.82462	-170.07869	905.48621	-516.12726	-530.71802	931.94482	-577.00555	-604.78754	477.2439	-564.55212	-687.82867	562.83807	-604.80792	-517.45782	315.95496	-942.31213	-610.07855	344.5051	-981.21814
654	3.26	-301.97537	104.76759	-521.41962	-357.88928	115.54308	-520.69019	-212.28311	513.11865	-372.82242	-315.22913	515.3028	-360.92059	-164.07906	909.08264	-518.32892	-527.26202	937.90381	-565.2453	-601.94928	482.82086	-543.84991	-689.18518	569.25555	-580.54175	-522.85614	332.16507	-925.63483	-616.23083	361.88608	-961.43921
655	3.265	-301.44409	105.97921	-520.98334	-357.02493	117.5309	-520.24396	-208.83871	514.69513	-375.66641	-311.51831	517.10547	-362.23077	-158.06705	912.50757	-521.69946	-523.31207	944.00409	-553.77325	-598.76758	489.03177	-523.16077	-689.90424	576.17322	-554.98102	-528.45575	348.37244	-908.16339	-620.6889	381.40982	-944.53351
656	3.27	-300.7948	107.32705	-520.61621	-357.24115	118.88248	-518.7829	-205.42816	516.25781	-378.69107	-307.86655	519.05951	-363.47556	-151.0239	915.98761	-526.43158	-518.64124	950.72058	-542.40271	-595.10291	495.914	-502.33521	-690.02991	583.75635	-528.27228	-534.52612	364.7287	-890.12122	-626.79132	400.50287	-923.06488
657	3.275	-300.41766	108.88998	-520.05066	-356.35205	120.99955	-518.31982	-201.7027	517.96112	-382.09979	-304.09125	521.10504	-364.68951	-145.37347	918.68268	-531.46716	-513.02502	957.89923	-531.92377	-591.302	503.44412	-481.33344	-689.4071	592.04926	-500.93228	-541.16693	381.41882	-871.48138	-633.23853	421.09113	-902.03394
658	3.28	-299.95474	110.32834	-519.49963	-355.93518	122.88603	-517.28632	-198.06894	519.59796	-385.52243	-300.01038	523.43842	-366.11823	-140.09966	921.0733	-537.30743	-507.1076	964.93042	-521.80286	-587.51917	511.82019	-459.88962	-687.83661	601.47223	-473.51035	-548.12256	398.5416	-852.22021	-640.12878	440.32062	-879.21588
659	3.285	-299.62888	111.90526	-518.72845	-355.6738	124.89113	-516.03107	-194.67128	521.19012	-388.90173	-296.22635	525.87317	-367.23569	-135.64259	923.20502	-543.81512	-501.40762	971.92419	-511.71301	-583.87787	521.15955	-437.93369	-685.44391	612.26202	-446.06613	-555.34601	415.59317	-832.13116	-647.80334	460.41934	-855.47083
660	3.29	-299.14142	113.62081	-518.08112	-355.27914	127.00471	-514.69293	-191.09978	522.81354	-392.51279	-291.85806	528.53345	-368.39377	-130.24976	925.7431	-551.09949	-495.09198	979.18964	-502.66309	-580.34039	531.44659	-415.03937	-681.87634	624.24371	-419.09357	-562.56769	433.94397	-812.02417	-655.27301	480.36282	-832.57678
661	3.295	-298.7883	115.2723	-517.31622	-354.95395	129.09573	-513.2243	-187.57224	524.52002	-396.11227	-287.63364	530.79211	-369.80701	-125.72192	927.85437	-558.4505	-487.32208	986.87854	-494.68491	-576.55487	542.89081	-390.65585	-677.42773	637.5304	-392.61945	-571.02106	451.74023	-790.69293	-663.79071	500.18805	-807.02411
662	3.3	-298.9278	116.86961	-516.28491	-354.79309	131.32103	-511.68741	-184.00932	526.36877	-399.68973	-283.43018	532.98425	-371.2356	-122.23752	929.60449	-566.10645	-480.53735	993.93604	-487.24701	-572.39954	555.5708	-366.04578	-671.31573	651.38721	-368.10696	-579.90881	469.74796	-768.52405	-672.95343	520.32324	-779.93665
663	3.305	-298.29791	118.78011	-515.71399	-354.548	133.47704	-510.02704	-180.62895	528.15576	-403.33524	-278.69211	535.78613	-372.10272	-119.00268	931.20532	-573.95544	-473.00607	1001.6083	-480.9827	-567.65045	569.61316	-340.59076	-665.05591	666.84088	-342.79407	-589.31183	487.82797	-745.63239	-681.94714	539.35248	-752.85431
664	3.31	-298.56583	120.32876	-514.60327	-354.39948	135.61244	-508.30191	-177.58942	529.78949	-407.06052	-274.45731	538.17932	-373.01624	-116.29594	932.55884	-582.03094	-466.13446	1008.9377	-475.05927	-561.82355	584.14117	-317.44177	-658.14532	683.71387	-317.16983	-598.44885	505.96667	-722.25006	-692.00342	560.45166	-724.71881
665	3.315	-298.2619	122.21206	-513.86871	-354.55191	137.91954	-506.20557	-174.09941	531.64282	-410.54703	-269.78448	541.29974	-373.39932	-114.12109	933.82544	-590.14844	-458.74884	1016.1104	-470.21713	-554.87378	600.50281	-292.22589	-649.73279	701.08929	-292.81937	-610.40417	523.31323	-696.70569	-700.75275	577.5564	-695.42407
666	3.32	-298.59705	123.89562	-512.97705	-354.72079	140.02533	-504.08762	-170.69386	533.41492	-413.98178	-264.91922	544.35638	-373.95749	-112.50224	934.70447	-598.24744	-451.61105	1023.0883	-466.211	-546.71063	617.2608	-268.22379	-639.68121	718.98651	-269.44257	-620.36249	541.17456	-671.20288	-711.07361	597.55884	-666.09766
667	3.325	-299.16351	125.37782	-512.02313	-354.94946	141.80359	-502.06213	-167.38329	534.9245	-417.40363	-260.13535	547.01318	-374.19449	-111.56321	935.48169	-606.04742	-445.29071	1029.9486	-462.30328	-537.4986	634.78015	-244.94525	-628.74457	737.9754	-245.78889	-631.66779	558.51862	-644.5351	-721.74744	617.56512	-633.0661
668	3.33	-299.77536	126.58329	-510.98294	-355.35175	143.77641	-499.90268	-163.7809	536.30798	-421.10135	-254.91139	549.7597	-374.23584	-110.34534	936.31836	-614.14062	-439.00238	1036.8679	-459.00223	-526.38245	653.10645	-222.80899	-616.23169	757.59497	-223.17502	-642.78558	575.17621	-616.91345	-729.60181	632.63867	-604.63971
